<svg width="35" height="35" viewBox="0 0 35 35" fill="none" xmlns="http://www.w3.org/2000/svg">
<path d="M4.375 13.125C4.375 9.0001 4.375 6.93802 5.65615 5.65615C6.93802 4.375 9.0001 4.375 13.125 4.375H14.5833V30.625H13.125C9.0001 30.625 6.93802 30.625 5.65615 29.3439C4.375 28.062 4.375 25.9999 4.375 21.875V13.125Z" stroke="black" stroke-width="4" stroke-linecap="round" stroke-linejoin="round"/>
<path d="M30.625 13.125C30.625 9.0001 30.625 6.93802 29.3439 5.65615C28.062 4.375 25.9999 4.375 21.875 4.375H20.4167V30.625H21.875C25.9999 30.625 28.062 30.625 29.3439 29.3439C30.625 28.062 30.625 25.9999 30.625 21.875V13.125Z" stroke="black" stroke-width="4" stroke-linecap="round" stroke-linejoin="round"/>
<path d="M25.5208 9.47917V10.9375" stroke="black" stroke-width="4" stroke-linecap="round" stroke-linejoin="round"/>
<path d="M9.47919 24.0625V25.5208" stroke="black" stroke-width="4" stroke-linecap="round" stroke-linejoin="round"/>
</svg>
